ffmpeg version 3.4.8-0ubuntu0.2 Copyright (c) 2000-2020 the FFmpeg developers
  built with gcc 7 (Ubuntu 7.5.0-3ubuntu1~18.04)
  configuration: --prefix=/usr --extra-version=0ubuntu0.2 --toolchain=hardened --libdir=/usr/lib/x86_64-linux-gnu --incdir=/usr/include/x86_64-linux-gnu --enable-gpl --disable-stripping --enable-avresample --enable-avisynth --enable-gnutls --enable-ladspa --enable-libass --enable-libbluray --enable-libbs2b --enable-libcaca --enable-libcdio --enable-libflite --enable-libfontconfig --enable-libfreetype --enable-libfribidi --enable-libgme --enable-libgsm --enable-libmp3lame --enable-libmysofa --enable-libopenjpeg --enable-libopenmpt --enable-libopus --enable-libpulse --enable-librubberband --enable-librsvg --enable-libshine --enable-libsnappy --enable-libsoxr --enable-libspeex --enable-libssh --enable-libtheora --enable-libtwolame --enable-libvorbis --enable-libvpx --enable-libwavpack --enable-libwebp --enable-libx265 --enable-libxml2 --enable-libxvid --enable-libzmq --enable-libzvbi --enable-omx --enable-openal --enable-opengl --enable-sdl2 --enable-libdc1394 --enable-libdrm --enable-libiec61883 --enable-chromaprint --enable-frei0r --enable-libopencv --enable-libx264 --enable-shared
  libavutil      55. 78.100 / 55. 78.100
  libavcodec     57.107.100 / 57.107.100
  libavformat    57. 83.100 / 57. 83.100
  libavdevice    57. 10.100 / 57. 10.100
  libavfilter     6.107.100 /  6.107.100
  libavresample   3.  7.  0 /  3.  7.  0
  libswscale      4.  8.100 /  4.  8.100
  libswresample   2.  9.100 /  2.  9.100
  libpostproc    54.  7.100 / 54.  7.100
[rawvideo @ 0x564607e0fa20] Estimating duration from bitrate, this may be inaccurate
Input #0, rawvideo, from '../../SVC-Encoder-20220109T061506Z-001/SVC-Encoder/Dataset/RollerCoaster/6f_2x2/tile_yuv/f4_t3_480x480.yuv':
  Duration: 00:00:10.00, start: 0.000000, bitrate: 82944 kb/s
    Stream #0:0: Video: rawvideo (I420 / 0x30323449), yuv420p, 480x480, 82944 kb/s, 30 tbr, 30 tbn, 30 tbc
Stream mapping:
  Stream #0:0 -> #0:0 (rawvideo (native) -> h264 (libx264))
Press [q] to stop, [?] for help
[libx264 @ 0x564607e1cc60] using cpu capabilities: MMX2 SSE2Fast LZCNT SSSE3 SSE4.2 AVX
[libx264 @ 0x564607e1cc60] profile High, level 3.0
Output #0, rawvideo, to 'RollerCoaster_f4_t3_480x480_x264_QP_24.h264':
  Metadata:
    encoder         : Lavf57.83.100
    Stream #0:0: Video: h264 (libx264), yuv420p, 480x480, q=-1--1, 30 fps, 30 tbn, 30 tbc
    Metadata:
      encoder         : Lavc57.107.100 libx264
    Side data:
      cpb: bitrate max/min/avg: 0/0/0 buffer size: 0 vbv_delay: -1
frame=  100 fps=0.0 q=30.0 PSNR=Y:nan U:nan V:nan *:nan size=     180kB time=00:00:01.90 bitrate= 778.1kbits/s speed=3.78x    frame=  166 fps=165 q=30.0 PSNR=Y:nan U:nan V:nan *:nan size=     256kB time=00:00:04.10 bitrate= 511.5kbits/s speed=4.07x    frame=  231 fps=153 q=30.0 PSNR=Y:nan U:nan V:nan *:nan size=     512kB time=00:00:06.26 bitrate= 669.3kbits/s speed=4.14x    frame=  295 fps=146 q=30.0 PSNR=Y:nan U:nan V:nan *:nan size=     512kB time=00:00:08.40 bitrate= 499.3kbits/s speed=4.17x    frame=  300 fps=128 q=30.0 LPSNR=Y:inf U:inf V:inf *:inf size=     824kB time=00:00:09.93 bitrate= 679.4kbits/s speed=4.25x    
video:824kB audio:0kB subtitle:0kB other streams:0kB global headers:0kB muxing overhead: 0.000000%
[libx264 @ 0x564607e1cc60] frame I:2     Avg QP:22.45  size: 32220  PSNR Mean Y:42.83 U:48.52 V:50.53 Avg:44.13 Global:44.03
[libx264 @ 0x564607e1cc60] frame P:76    Avg QP:23.93  size:  8284  PSNR Mean Y:40.79 U:47.67 V:49.59 Avg:42.20 Global:42.13
[libx264 @ 0x564607e1cc60] frame B:222   Avg QP:29.48  size:   674  PSNR Mean Y:39.84 U:47.52 V:49.50 Avg:41.30 Global:41.28
[libx264 @ 0x564607e1cc60] consecutive B-frames:  1.0%  0.7%  1.0% 97.3%
[libx264 @ 0x564607e1cc60] mb I  I16..4: 12.8% 68.1% 19.1%
[libx264 @ 0x564607e1cc60] mb P  I16..4:  0.6%  0.2%  0.0%  P16..4: 31.9% 29.2% 18.9%  0.0%  0.0%    skip:19.2%
[libx264 @ 0x564607e1cc60] mb B  I16..4:  0.0%  0.0%  0.0%  B16..8: 34.5%  6.4%  0.5%  direct: 0.5%  skip:58.1%  L0:29.6% L1:54.9% BI:15.5%
[libx264 @ 0x564607e1cc60] 8x8 transform intra:58.0% inter:59.8%
[libx264 @ 0x564607e1cc60] coded y,uvDC,uvAC intra: 66.4% 63.9% 29.6% inter: 13.8% 6.6% 0.0%
[libx264 @ 0x564607e1cc60] i16 v,h,dc,p:  5% 54% 16% 25%
[libx264 @ 0x564607e1cc60] i8 v,h,dc,ddl,ddr,vr,hd,vl,hu:  6% 12% 16%  5%  9%  4% 11% 29%  7%
[libx264 @ 0x564607e1cc60] i4 v,h,dc,ddl,ddr,vr,hd,vl,hu:  8% 13% 12%  6% 14%  6% 15% 19%  7%
[libx264 @ 0x564607e1cc60] i8c dc,h,v,p: 50% 19% 17% 14%
[libx264 @ 0x564607e1cc60] Weighted P-Frames: Y:1.3% UV:0.0%
[libx264 @ 0x564607e1cc60] ref P L0: 63.2% 22.2% 12.8%  1.7%  0.0%
[libx264 @ 0x564607e1cc60] ref B L0: 94.7%  4.7%  0.6%
[libx264 @ 0x564607e1cc60] ref B L1: 94.8%  5.2%
[libx264 @ 0x564607e1cc60] PSNR Mean Y:40.098 U:47.567 V:49.525 Avg:41.550 Global:41.496 kb/s:674.83
